<svg id="Capa_1" enable-background="new 0 0 512 512" height="512" viewBox="0 0 512 512" width="512" xmlns="http://www.w3.org/2000/svg"><path d="m255.999 383.425c-66.759 0-121.072 54.314-121.072 121.075h242.147c-.001-66.761-54.314-121.075-121.075-121.075z" fill="#d2dff7"/><path d="m255.999 383.425c-66.759 0-121.072 54.314-121.072 121.075h66.073v-58.952c0-2.954.857-5.853 2.502-8.306 17.47-26.05 44.767-44.98 76.552-51.413-7.777-1.574-15.821-2.404-24.055-2.404z" fill="#adc0ed"/><circle cx="256" cy="441.61" fill="#adc0ed" r="15"/><circle cx="256" cy="489.5" fill="#adc0ed" r="15"/><path d="m110.872 215.048c-19.927 0-36.081 16.154-36.081 36.081 0 19.928 16.154 36.082 36.081 36.082s36.082-16.154 36.082-36.082c0-19.927-16.155-36.081-36.082-36.081z" fill="#ffbd86"/><path d="m401.128 215.048c-19.927 0-36.082 16.154-36.082 36.081 0 19.928 16.154 36.082 36.082 36.082s36.081-16.154 36.081-36.082c0-19.927-16.154-36.081-36.081-36.081z" fill="#ffbd86"/><path d="m296.684 390.466c60.347-17.591 104.443-73.311 104.443-139.337 0-80.153-64.976-145.129-145.129-145.129-80.15 0-145.127 64.976-145.127 145.129 0 66.026 44.097 121.746 104.442 139.337 12.91 3.763 26.56 5.789 40.684 5.789 14.127 0 27.777-2.026 40.687-5.789z" fill="#fed2a4"/><path d="m158.981 251.129c0-71.957 52.372-131.671 121.073-143.133-7.825-1.306-15.859-1.996-24.055-1.996-80.15 0-145.127 64.976-145.127 145.129 0 80.15 64.977 145.127 145.127 145.127 8.196 0 16.229-.69 24.055-1.996-68.701-11.462-121.073-71.176-121.073-143.131z" fill="#ffbd86"/><path d="m292.793 215.319c25.031 36.415 78.868 36.384 103.879.005-15.944-62.836-72.877-109.324-140.673-109.324-67.792 0-124.725 46.486-140.671 109.322 54.204 36.814 124.68 35.898 177.465-.003z" fill="#e37858"/><path d="m280.054 107.996.014-.003c-7.829-1.307-15.869-1.993-24.069-1.993-67.792 0-124.725 46.486-140.671 109.322 13.922 9.455 28.922 16.403 44.416 20.928 6.639-65.18 56.406-117.593 120.31-128.254z" fill="#dd6642"/><path d="m366.684 7.502c-2.217 0-219.128 0-221.353 0-16.569 0-30 13.432-30 30v177.819c89.459-38.985 191.426-39.186 281.353 0v-177.819c0-16.569-13.431-30-30-30z" fill="#d2dff7"/><g fill="#adc0ed"><path d="m195.802 7.5h-50.478c-16.569 0-30 13.431-30 30v177.819c17.647-7.69 35.768-13.86 54.175-18.525v-125.793c0-23.818 9.461-46.66 26.303-63.501z"/><path d="m169.499 56.001c-8.284 0-15 6.716-15 15v80c0 8.284 6.716 15 15 15s15-6.716 15-15v-80c0-8.284-6.716-15-15-15z"/><path d="m256 56.001c-8.284 0-15 6.716-15 15v80c0 8.284 6.716 15 15 15s15-6.716 15-15v-80c0-8.284-6.716-15-15-15z"/><path d="m342.501 56.001c-8.284 0-15 6.716-15 15v80c0 8.284 6.716 15 15 15s15-6.716 15-15v-80c0-8.284-6.715-15-15-15z"/></g><path d="m206.5 297.988c-.031 9.896-10.13 17.886-22.556 17.847s-22.475-8.092-22.444-17.988 10.13-17.886 22.556-17.847c12.426.038 22.475 8.092 22.444 17.988z" fill="#ff8e9e"/><path d="m305.5 298.279c-.031 9.896 10.017 17.949 22.444 17.988 12.426.039 22.525-7.951 22.556-17.847s-10.017-17.95-22.444-17.988c-12.426-.039-22.525 7.951-22.556 17.847z" fill="#ff8e9e"/><path d="m192 260.5c-4.142 0-7.5 3.358-7.5 7.5v10c0 4.142 3.358 7.5 7.5 7.5s7.5-3.358 7.5-7.5v-10c0-4.142-3.358-7.5-7.5-7.5z"/><path d="m320 260.5c-4.142 0-7.5 3.358-7.5 7.5v10c0 4.142 3.358 7.5 7.5 7.5s7.5-3.358 7.5-7.5v-10c0-4.142-3.358-7.5-7.5-7.5z"/><path d="m275.735 289.234c-3.738-1.788-8.215-.206-10.001 3.531-1.666 3.484-5.291 5.735-9.234 5.735s-7.568-2.251-9.234-5.735c-1.786-3.737-6.265-5.318-10.001-3.531-3.737 1.787-5.318 6.265-3.531 10.001 4.144 8.666 13.08 14.265 22.766 14.265s18.623-5.599 22.766-14.265c1.787-3.736.206-8.214-3.531-10.001z"/><path d="m402.286 294.681c23.495-.618 42.422-19.91 42.422-43.552 0-23.005-17.92-41.891-40.532-43.463v-170.166c0-20.678-16.822-37.5-37.5-37.5h-221.352c-20.678 0-37.5 16.822-37.5 37.5v170.166c-22.612 1.572-40.533 20.458-40.533 43.463 0 23.628 18.905 42.912 42.382 43.551 12.958 43.685 44.82 78.778 85.655 96.5-41.26 22.157-67.901 65.599-67.901 113.32 0 4.142 3.358 7.5 7.5 7.5h242.146c4.143 0 7.5-3.358 7.5-7.5 0-47.728-26.649-91.175-67.918-113.329 41.004-17.827 72.704-53.148 85.631-96.49zm27.423-43.552c0 14.093-10.256 25.829-23.695 28.155 1.71-9.129 2.614-18.538 2.614-28.155 0-9.465-.875-18.897-2.602-28.153 13.433 2.331 23.683 14.064 23.683 28.153zm-306.885-213.629c0-12.407 10.093-22.5 22.5-22.5h221.353c12.406 0 22.5 10.093 22.5 22.5v166.566c-24.913-9.93-50.896-17.055-77.393-21.213-4.094-.645-7.93 2.154-8.572 6.247-.642 4.092 2.154 7.93 6.247 8.572 25.701 4.033 50.895 10.986 75.036 20.685-24.486 25.137-65.748 21.481-85.521-7.286-2.337-3.401-6.984-4.274-10.398-1.953-47.273 32.153-107.31 34.655-156.69 7.528 48.833-18.89 99.365-25.745 148.41-22.284 4.116.288 7.718-2.822 8.009-6.954s-2.822-7.718-6.954-8.009c-53.56-3.781-107.514 4.295-158.528 24.665v-166.564zm125.676 452c0-4.136 3.364-7.5 7.5-7.5s7.5 3.364 7.5 7.5-3.364 7.5-7.5 7.5-7.5-3.364-7.5-7.5zm120.824 7.5h-92.114c.833-2.347 1.29-4.871 1.29-7.5 0-12.407-10.093-22.5-22.5-22.5s-22.5 10.093-22.5 22.5c0 2.629.458 5.153 1.29 7.5h-92.114c2.927-44.028 31.448-82.825 73.016-98.658 3.969 1.087 7.996 2.026 12.081 2.793-11.867 8.789-22.221 19.582-30.502 31.925-2.47 3.69-3.77 8-3.77 12.49v28.95c0 4.14 3.36 7.5 7.5 7.5s7.5-3.36 7.5-7.5v-28.95c0-1.51.43-2.93 1.23-4.13 10.665-15.905 25.222-28.908 42.156-37.724 15.078.402 29.961-1.389 44.422-5.353 41.567 15.832 70.088 54.63 73.015 98.657zm-113.325-108.245c-69.475 0-128.202-51.917-136.605-120.763-.502-4.111-4.236-7.038-8.354-6.536-4.112.502-7.038 4.242-6.536 8.354.39 3.192.885 6.348 1.467 9.472-13.432-2.332-23.68-14.064-23.68-28.152 0-14.089 10.25-25.822 23.682-28.153-.948 5.083-1.644 10.224-2.072 15.369-.343 4.127 2.725 7.752 6.853 8.096.211.018.421.026.63.026 3.86 0 7.14-2.962 7.466-6.879.339-4.076.869-8.149 1.571-12.186 52.857 31.028 118.76 30.126 170.648-2.021 25.805 30.274 71.681 33.251 101.182 6.349.905 6.41 1.378 12.894 1.378 19.399-.001 75.887-61.741 137.625-137.63 137.625z"/><path d="m233.5 441.61c0 12.407 10.093 22.5 22.5 22.5s22.5-10.093 22.5-22.5-10.093-22.5-22.5-22.5-22.5 10.093-22.5 22.5zm22.5-7.5c4.136 0 7.5 3.364 7.5 7.5s-3.364 7.5-7.5 7.5-7.5-3.364-7.5-7.5 3.364-7.5 7.5-7.5z"/><path d="m169.499 48.501c-4.142 0-7.5 3.358-7.5 7.5s3.358 7.5 7.5 7.5c4.136 0 7.5 3.364 7.5 7.5v80c0 2.368-1.099 4.552-3.016 5.991-3.312 2.488-3.98 7.189-1.493 10.501 2.488 3.314 7.191 3.98 10.501 1.493 5.725-4.299 9.008-10.855 9.008-17.985v-80c0-12.407-10.094-22.5-22.5-22.5z"/><path d="m263.5 71.001v80c0 2.368-1.099 4.552-3.016 5.991-3.312 2.488-3.98 7.189-1.493 10.501 2.488 3.314 7.191 3.98 10.501 1.493 5.725-4.299 9.008-10.855 9.008-17.985v-80c0-12.407-10.093-22.5-22.5-22.5-4.142 0-7.5 3.358-7.5 7.5s3.358 7.5 7.5 7.5c4.136 0 7.5 3.364 7.5 7.5z"/><path d="m342.502 63.501c4.136 0 7.5 3.364 7.5 7.5v80c0 2.368-1.1 4.552-3.016 5.992-3.313 2.488-3.98 7.189-1.493 10.501 1.474 1.962 3.725 2.996 6.003 2.996 1.567 0 3.148-.49 4.498-1.504 5.725-4.3 9.008-10.855 9.008-17.985v-80c0-12.407-10.094-22.5-22.5-22.5-4.143 0-7.5 3.358-7.5 7.5s3.357 7.5 7.5 7.5z"/></svg>